<?xml version="1.0" standalone="no"?>
<!DOCTYPE svg PUBLIC "-//W3C//DTD SVG 20010904//EN"
 "http://www.w3.org/TR/2001/REC-SVG-20010904/DTD/svg10.dtd">
<svg version="1.0" xmlns="http://www.w3.org/2000/svg"
 width="500.000000pt" height="500.000000pt" viewBox="0 0 500.000000 500.000000"
 preserveAspectRatio="xMidYMid meet">

<g transform="translate(0.000000,500.000000) scale(0.100000,-0.100000)"
fill="#000000" stroke="none">
<path d="M0 2500 l0 -2500 2500 0 2500 0 0 2500 0 2500 -2500 0 -2500 0 0
-2500z m3021 874 c112 -63 176 -211 149 -347 -31 -161 -124 -261 -426 -462
-94 -63 -183 -128 -198 -145 -48 -58 -46 -112 6 -118 19 -2 36 8 69 44 121
130 115 125 156 122 34 -3 38 -6 41 -33 2 -19 -20 -90 -56 -185 -33 -85 -95
-247 -137 -360 -43 -113 -79 -207 -81 -209 -10 -11 9 -58 -294 744 -303 802
-312 824 -373 889 -19 20 -48 39 -66 42 -85 17 -20 24 229 24 178 0 269 -3
265 -10 -3 -5 -22 -10 -42 -10 -20 0 -57 -10 -81 -21 -76 -37 -89 -106 -44
-244 21 -63 212 -568 217 -573 2 -2 1 48 -2 111 -23 472 193 787 533 774 68
-3 89 -8 135 -33z m-2011 -1833 c0 -11 13 -56 30 -100 16 -45 26 -81 21 -81
-5 0 -18 28 -31 63 -12 34 -30 79 -40 100 -18 36 -18 37 1 37 12 0 19 -7 19
-19z m129 2 c-7 -10 -14 -19 -15 -21 -1 -1 -4 6 -7 18 -4 15 0 20 15 20 18 0
19 -2 7 -17z m136 -88 c0 -63 -4 -105 -10 -105 -6 0 -10 42 -10 105 0 63 4
105 10 105 6 0 10 -42 10 -105z m99 89 c20 -20 21 -58 1 -74 -14 -11 -14 -10
-7 11 11 28 6 49 -16 67 -9 6 -11 12 -5 12 7 0 19 -7 27 -16z m161 -89 c0 -77
-3 -105 -12 -105 -10 0 -13 28 -13 105 0 77 3 105 13 105 9 0 12 -28 12 -105z
m198 13 c32 -49 56 -95 55 -100 -2 -6 -30 30 -62 78 -33 49 -63 91 -68 92 -13
6 -10 22 5 21 6 0 38 -41 70 -91z m59 70 c-4 -16 -7 -18 -10 -8 -3 8 -10 18
-16 22 -6 5 -2 8 11 8 17 0 20 -4 15 -22z m148 -83 c0 -77 -3 -105 -12 -105
-10 0 -13 28 -13 105 0 77 3 105 13 105 9 0 12 -28 12 -105z m128 -7 c-4 -38
-12 -56 -33 -76 l-28 -27 21 29 c30 39 30 122 1 162 -17 24 -16 23 11 -5 29
-31 32 -38 28 -83z m225 -10 c32 -82 33 -88 15 -88 -11 0 -16 5 -13 10 4 6 -7
46 -24 90 -17 44 -31 87 -30 97 1 22 4 15 52 -109z m317 17 c0 -77 -3 -105
-12 -105 -10 0 -13 28 -13 105 0 77 3 105 13 105 9 0 12 -28 12 -105z m265 0
c0 -87 -3 -105 -15 -105 -12 0 -15 18 -15 105 0 87 3 105 15 105 12 0 15 -18
15 -105z m260 94 c11 -17 -1 -21 -15 -4 -8 9 -8 15 -2 15 6 0 14 -5 17 -11z
m150 -94 c0 -63 -4 -105 -10 -105 -6 0 -10 42 -10 105 0 63 4 105 10 105 6 0
10 -42 10 -105z m145 101 c0 -2 -9 -6 -20 -9 -11 -3 -20 -1 -20 4 0 5 9 9 20
9 11 0 20 -2 20 -4z m42 -123 c3 -65 0 -83 -11 -83 -9 0 -11 7 -7 23 3 12 6
60 7 107 2 96 7 76 11 -47z m68 118 c0 -5 -9 -7 -20 -4 -11 3 -20 7 -20 9 0 2
9 4 20 4 11 0 20 -4 20 -9z m210 -108 c35 -86 36 -93 18 -93 -10 0 -16 5 -13
10 4 6 -7 46 -24 90 -17 44 -31 87 -30 97 0 13 2 14 6 4 3 -8 23 -57 43 -108z
m172 12 c-2 -73 -7 -105 -15 -105 -9 0 -12 31 -12 105 0 87 3 105 15 105 13 0
14 -17 12 -105z m-1185 -8 c-3 -33 -11 -55 -27 -70 l-23 -22 17 25 c21 32 21
117 0 150 -13 20 -11 20 11 -4 24 -26 27 -36 22 -79z m277 56 c-18 -43 -12
-90 17 -127 12 -15 15 -24 7 -21 -40 16 -61 106 -36 160 18 39 29 29 12 -12z
m111 -28 c40 -18 21 -18 -35 -1 -32 10 -38 15 -20 15 14 0 39 -6 55 -14z m19
-41 c10 -25 7 -51 -6 -62 -10 -8 -13 0 -13 34 0 45 8 57 19 28z m517 -5 c-28
-27 -24 -61 9 -70 l25 -7 -27 -1 c-36 -1 -51 25 -32 60 12 23 25 35 43 38 3 1
-5 -8 -18 -20z m-2298 -39 c34 -48 20 -54 -15 -7 -36 47 -41 58 -26 52 7 -3
26 -23 41 -45z m825 26 c-14 -32 -5 -53 24 -59 21 -4 20 -4 -4 -6 -37 -1 -51
25 -32 61 18 34 28 37 12 4z m-514 -51 c3 -9 0 -15 -9 -15 -8 0 -15 7 -15 15
0 8 4 15 9 15 5 0 11 -7 15 -15z m2356 -5 c0 -5 -12 -10 -27 -9 l-28 1 25 8
c14 4 26 8 28 9 1 1 2 -3 2 -9z m-2370 -134 c0 -2 -7 -6 -15 -10 -8 -3 -15 -1
-15 4 0 6 7 10 15 10 8 0 15 -2 15 -4z m52 -101 c2 -88 1 -105 -12 -105 -13 0
-14 17 -12 105 2 58 7 105 12 105 5 0 10 -47 12 -105z m58 95 c0 -5 -7 -7 -15
-4 -8 4 -15 8 -15 10 0 2 7 4 15 4 8 0 15 -4 15 -10z m132 -95 c2 -88 1 -105
-12 -105 -12 0 -15 18 -15 105 0 74 3 105 12 105 8 0 13 -32 15 -105z m104 80
c14 -21 15 -31 6 -50 -7 -14 -17 -25 -24 -25 -9 0 -9 3 0 12 17 17 15 48 -5
70 -9 10 -11 18 -5 18 6 0 19 -11 28 -25z m413 -80 c1 -79 -2 -105 -11 -105
-10 0 -13 27 -13 105 0 71 4 105 11 105 8 0 12 -35 13 -105z m201 9 c34 -52
59 -98 56 -101 -8 -8 -5 -11 -61 77 -26 41 -57 85 -68 98 -17 18 -18 22 -5 22
9 0 43 -43 78 -96z m62 69 c-3 -17 -7 -22 -10 -13 -3 8 -9 21 -15 28 -7 9 -4
12 10 12 17 0 19 -5 15 -27z m143 -78 c0 -87 -3 -105 -15 -105 -13 0 -14 17
-12 105 2 73 7 105 15 105 9 0 12 -31 12 -105z m198 15 c33 -49 57 -94 55
-100 -2 -6 -30 30 -62 79 -32 50 -62 91 -67 91 -5 0 -9 5 -9 10 0 30 32 0 83
-80z m67 75 c0 -8 -4 -15 -9 -15 -5 0 -11 7 -15 15 -3 9 0 15 9 15 8 0 15 -7
15 -15z m151 -11 c-29 -37 -29 -120 0 -160 19 -26 18 -25 -10 4 -41 43 -44
106 -5 151 31 38 44 41 15 5z m109 9 c0 -10 -4 -14 -8 -8 -4 6 -11 13 -16 18
-5 4 -2 7 7 7 10 0 17 -8 17 -17z m-1113 -75 c17 -46 34 -91 38 -100 5 -14 2
-18 -13 -18 -15 0 -19 5 -15 19 3 11 -2 34 -10 53 -8 18 -20 47 -25 63 -5 17
-13 38 -17 48 -4 9 -3 17 2 17 5 0 23 -37 40 -82z m1098 7 c40 -18 21 -18 -35
-1 -32 10 -38 15 -20 15 14 0 39 -6 55 -14z m-1179 -44 c-24 -27 -17 -64 14
-72 23 -6 23 -7 -7 -8 -27 -1 -34 3 -39 25 -5 18 0 32 17 50 26 28 40 33 15 5z
m1202 -18 c2 -16 -3 -35 -10 -41 -10 -8 -13 -1 -13 34 0 49 18 55 23 7z
m-1369 -24 c20 -24 27 -39 18 -39 -7 0 -27 20 -44 44 -38 54 -18 50 26 -5z
m574 -26 c7 -10 4 -13 -10 -13 -17 0 -19 5 -15 28 3 16 7 21 10 12 3 -8 9 -21
15 -27z m400 7 c3 -12 0 -20 -8 -20 -8 0 -11 8 -8 20 3 11 7 20 8 20 1 0 5 -9
8 -20z"/>
<path d="M2726 3328 c-152 -20 -273 -160 -333 -386 -23 -85 -26 -116 -26 -252
0 -110 5 -175 17 -225 15 -63 201 -570 215 -587 11 -12 213 541 206 563 -4 12
-15 19 -32 19 -20 0 -46 -21 -108 -85 -66 -70 -86 -85 -111 -85 -41 0 -54 16
-54 65 0 73 43 118 249 263 46 33 112 88 147 122 143 141 184 332 101 471 -55
92 -150 133 -271 117z"/>
</g>
</svg>
